# Blender v2.81 (sub 16) OBJ File: ''
# www.blender.org
o SpruceTree1_Cylinder
v 0.787138 0.006650 -0.130833
v 0.525628 0.863031 -0.166840
v 0.377814 0.006650 0.691241
v 0.318414 0.897160 0.418690
v 0.016732 2.632713 -0.392766
v 0.388858 2.632713 -0.122401
v 0.246718 2.632713 0.315058
v -0.213254 2.632713 0.315058
v -0.355393 2.632713 -0.122401
v -0.126865 5.227523 -0.295836
v 0.252297 5.227523 -0.229017
v 0.305916 5.227523 0.152236
v -0.040108 5.227523 0.321044
v -0.307582 5.227523 0.044120
v 0.530361 10.572374 -0.034505
v 0.418714 10.572374 -0.122146
v 0.481511 10.572374 0.098759
v 0.339673 10.572374 0.093481
v 0.300862 10.572374 -0.043046
v 0.422890 8.956529 -0.886666
v 0.538923 12.086780 -0.000002
v 1.190237 8.928084 -0.443334
v 0.538923 12.086780 -0.000002
v 1.190237 8.928084 0.443331
v 0.538923 12.086780 -0.000002
v 0.422890 8.956529 0.886663
v 0.538923 12.086780 -0.000002
v -0.344458 8.984973 0.443331
v 0.538923 12.086780 -0.000002
v -0.344458 8.984973 -0.443334
v 0.538923 12.086780 -0.000002
v 0.345135 6.858982 -1.000001
v 1.210567 6.826901 -0.500001
v 1.210567 6.826901 0.499999
v 0.345135 6.858982 0.999999
v -0.520296 6.891063 0.499999
v -0.520296 6.891063 -0.500001
v -0.195491 2.602725 -0.468621
v 0.312535 2.583894 -0.411911
v 0.517469 2.576297 0.056710
v 0.214376 2.587532 0.468620
v -0.293649 2.606364 0.411909
v -0.498583 2.613960 -0.056711
v -0.154616 8.165482 -1.720339
v 1.616261 8.553624 -1.349019
v 2.180347 8.532716 0.371319
v 0.973557 8.274213 1.720337
v -0.797320 8.643092 1.349016
v -1.361406 8.664002 -0.371321
v 1.675165 5.088780 1.860318
v 2.594095 5.383595 -0.267594
v -1.089027 5.027961 -1.860319
v -2.007956 5.554186 0.267592
v -0.625860 5.502954 2.127911
v 1.211999 5.434827 -2.127912
v 1.687535 3.739073 -1.252049
v -0.124642 4.142855 -1.520075
v -1.580180 3.859548 -0.635646
v -1.223541 3.468668 1.252048
v 0.588635 3.821880 1.887694
v 2.044174 3.441785 0.635645
v 1.774222 6.803908 0.168701
v -1.061101 7.218122 -0.168703
v 1.211137 7.129296 -1.144152
v 0.919645 7.154128 1.312852
v -0.206524 7.531304 -0.945235
v -0.498016 6.799142 1.144150
v 0.434579 10.372600 -0.516808
v 1.214015 9.990657 -0.465999
v 1.240877 9.653323 0.418427
v 0.488303 9.971532 0.884425
v -0.291133 9.596480 0.465996
v -0.317995 10.027406 -0.418430
v -1.027632 1.496148 -2.721551
v 1.922768 1.883550 -2.392200
v 3.112936 1.839432 0.329351
v 1.352705 1.572725 2.721550
v -1.597694 2.014049 2.392199
v -2.787862 2.058166 -0.329351
v -0.400917 1.079971 0.322894
v -0.482123 0.001318 0.616122
v 0.131788 0.006650 -0.774159
v 0.006283 0.817411 -0.550455
v -0.513402 1.060984 -0.238139
v -0.698718 0.009817 -0.370113
vn 0.1949 0.2723 -0.9423
vn 0.0587 0.0820 0.9949
vn 0.1948 0.2722 -0.9423
vn 0.9538 0.2891 0.0815
vn 0.2167 0.0657 0.9740
vn 0.9538 0.2891 0.0813
vn 0.5906 0.2992 0.7494
vn 0.1180 0.0598 0.9912
vn -0.5648 0.3298 0.7565
vn -0.1095 0.0639 0.9919
vn 0.0000 0.0000 1.0000
vn -0.9190 0.3428 0.1949
vn -0.2012 0.0751 0.9767
vn -0.2551 0.2935 -0.9213
vn -0.0688 0.0791 0.9945
vn -0.2550 0.2933 -0.9214
vn -0.6649 -0.5624 -0.4915
vn -0.5734 -0.5945 -0.5637
vn -0.7587 -0.5150 -0.3990
vn 0.1310 0.4581 -0.8792
vn 0.1213 0.4512 -0.8841
vn 0.0499 0.3987 -0.9157
vn 0.6232 -0.5763 0.5287
vn 0.5334 -0.5989 0.5973
vn 0.7149 -0.5414 0.4426
vn -0.0417 -0.6211 -0.7826
vn 0.1018 -0.6782 -0.7278
vn -0.1927 -0.5423 -0.8178
vn -0.7061 -0.6226 0.3373
vn -0.7214 -0.6556 0.2232
vn -0.6699 -0.5645 0.4822
vn 0.6579 -0.6734 -0.3372
vn 0.6706 -0.7075 -0.2231
vn 0.6261 -0.6129 -0.4820
vn 0.0297 -0.6094 0.7923
vn -0.1401 -0.6657 0.7329
vn 0.1904 -0.5357 0.8227
vn -0.6141 0.4367 -0.6574
vn -0.6283 0.4270 -0.6503
vn -0.7048 0.3696 -0.6055
vn -0.1767 0.4570 0.8717
vn -0.2021 0.4823 0.8524
vn -0.0558 0.3304 0.9422
vn 0.8639 0.4305 -0.2616
vn 0.8602 0.4571 -0.2262
vn 0.8642 0.3384 -0.3724
vn -0.7922 0.5195 0.3203
vn -0.7895 0.5313 0.3071
vn -0.7983 0.4851 0.3570
vn 0.6923 0.4081 0.5951
vn 0.6865 0.4135 0.5981
vn 0.7265 0.3744 0.5763
vn -0.0370 -0.9993 -0.0000
vn 0.2870 -0.7863 0.5472
vn 0.2870 -0.7862 0.5472
vn 0.3662 -0.9259 -0.0923
vn 0.3483 -0.9350 -0.0664
vn 0.3010 -0.9536 0.0000
vn 0.0275 -0.8596 -0.5103
vn 0.0512 -0.8842 -0.4642
vn 0.1331 -0.9474 -0.2911
vn -0.3368 -0.8137 -0.4738
vn -0.3300 -0.8164 -0.4740
vn -0.3048 -0.8258 -0.4745
vn -0.4339 -0.8962 0.0924
vn -0.4166 -0.9066 0.0664
vn -0.3708 -0.9287 0.0000
vn -0.0661 -0.8305 0.5531
vn -0.0920 -0.8561 0.5085
vn -0.2029 -0.9349 0.2911
vn -0.0854 0.4451 -0.8914
vn -0.1129 0.4292 -0.8961
vn -0.1743 0.3917 -0.9034
vn -0.7043 0.4983 0.5056
vn -0.7046 0.5004 0.5031
vn -0.7005 0.4740 0.5335
vn 0.8010 0.4207 -0.4258
vn 0.8022 0.4250 -0.4193
vn 0.7635 0.3245 -0.5583
vn -0.0013 0.4436 0.8962
vn 0.0051 0.4388 0.8986
vn 0.1645 0.3085 0.9369
vn -0.7475 0.4120 -0.5210
vn -0.7782 0.3901 -0.4922
vn -0.8241 0.3528 -0.4431
vn 0.8133 0.3841 0.4371
vn 0.8150 0.3824 0.4354
vn 0.8383 0.3575 0.4116
vn 0.5488 0.2542 0.7964
vn 0.6377 0.2102 0.7410
vn 0.6684 0.1934 0.7183
vn -0.9496 0.3048 0.0726
vn -0.9469 0.2604 0.1886
vn -0.9425 0.2439 0.2286
vn 0.9735 0.2238 -0.0474
vn 0.9724 0.1984 -0.1224
vn 0.9702 0.1873 -0.1538
vn -0.4435 0.2313 0.8659
vn -0.3864 0.2604 0.8848
vn -0.4833 0.2097 0.8500
vn -0.4969 0.2382 -0.8345
vn -0.5263 0.2283 -0.8191
vn -0.5376 0.2243 -0.8128
vn 0.3971 0.1468 -0.9060
vn 0.2597 0.2275 -0.9385
vn 0.5009 0.0784 -0.8619
vn 0.6157 0.2691 0.7406
vn 0.7449 0.1986 0.6369
vn 0.8136 0.1511 0.5614
vn -0.5571 0.2233 -0.7999
vn -0.6416 0.1952 -0.7418
vn -0.6964 0.1743 -0.6961
vn -0.3703 0.2643 0.8905
vn -0.2533 0.2205 0.9419
vn -0.1616 0.1847 0.9694
vn 0.9652 0.2290 -0.1262
vn 0.9476 0.1856 -0.2601
vn 0.9216 0.1502 -0.3580
vn -0.9328 0.3228 0.1603
vn -0.9066 0.2499 0.3402
vn -0.8749 0.2025 0.4399
vn 0.2610 0.2442 -0.9340
vn 0.0941 0.1786 -0.9794
vn -0.1131 0.0906 -0.9894
vn -0.4305 0.4916 -0.7570
vn -0.5243 0.4566 -0.7188
vn -0.5895 0.4275 -0.6854
vn -0.7458 0.6045 0.2800
vn -0.7447 0.6084 0.2744
vn -0.7398 0.6245 0.2502
vn -0.3286 0.5790 0.7462
vn -0.2651 0.5367 0.8010
vn -0.1029 0.4156 0.9037
vn 0.6022 0.4832 0.6355
vn 0.6032 0.4825 0.6350
vn 0.6056 0.4811 0.6339
vn 0.8481 0.5261 -0.0627
vn 0.8573 0.5016 -0.1160
vn 0.8664 0.4140 -0.2791
vn 0.1229 0.4978 -0.8585
vn 0.1866 0.4576 -0.8694
vn 0.0596 0.5347 -0.8430
vn 0.0016 -0.9050 0.4253
vn 0.0533 -0.9150 0.4000
vn 0.0773 -0.9185 0.3877
vn -0.2820 -0.9533 0.1079
vn -0.2899 -0.9221 -0.2564
vn -0.2519 -0.9291 -0.2709
vn -0.3494 -0.9077 -0.2323
vn -0.0553 -0.9414 -0.3327
vn -0.0835 -0.9307 -0.3561
vn -0.0033 -0.9575 -0.2885
vn 0.2480 -0.9608 -0.1240
vn 0.2116 -0.9335 0.2894
vn 0.2108 -0.9164 0.3403
vn 0.2101 -0.9060 0.3674
vn -0.4066 -0.6280 -0.6635
vn 0.2385 0.5302 -0.8137
vn 0.3758 -0.6186 0.6901
vn 0.3209 -0.7309 -0.6024
vn -0.7219 -0.6920 0.0000
vn 0.6684 -0.7438 0.0000
vn -0.3742 -0.7050 0.6025
vn -0.5197 0.4938 -0.6972
vn -0.3634 0.6308 0.6856
vn 0.8241 0.5625 -0.0671
vn -0.7795 0.5676 0.2648
vn 0.6473 0.4484 0.6164
vn 0.2869 -0.7863 0.5472
vn 0.3996 -0.9056 -0.1420
vn -0.0334 -0.7841 -0.6197
vn -0.3562 -0.8058 -0.4730
vn -0.4657 -0.8735 0.1421
vn 0.0173 -0.7313 0.6819
vn 0.0210 0.5020 -0.8646
vn -0.7076 0.5263 0.4715
vn 0.8152 0.5371 -0.2165
vn -0.2413 0.6017 0.7614
vn -0.6851 0.4507 -0.5722
vn 0.7864 0.4101 0.4619
vn 0.4879 0.2807 0.8265
vn -0.9440 0.3300 0.0000
vn 0.9710 0.2391 0.0000
vn -0.3652 0.2708 0.8907
vn -0.4783 0.2442 -0.8435
vn 0.1978 0.2607 -0.9449
vn 0.4821 0.3252 0.8135
vn -0.4781 0.2458 -0.8432
vn -0.4690 0.2994 0.8309
vn 0.9642 0.2651 0.0000
vn -0.9267 0.3759 0.0000
vn 0.4824 0.3229 -0.8143
vn -0.3404 0.5186 -0.7844
vn -0.7504 0.5849 0.3078
vn -0.5685 0.7009 0.4308
vn 0.5994 0.4850 0.6368
vn 0.7529 0.6222 0.2144
vn 0.2574 0.4088 -0.8756
vn -0.0845 -0.8817 0.4643
vn -0.2354 -0.9316 -0.2771
vn -0.0973 -0.9249 -0.3674
vn 0.2115 -0.9603 0.1818
vn 0.6352 0.2306 -0.7371
vn 0.6250 0.2395 -0.7430
vn 0.6890 0.1809 -0.7019
vn -0.0706 0.2745 0.9590
vn -0.0746 0.2778 0.9577
vn -0.0851 0.2864 0.9543
vn -0.0992 0.0464 0.9940
vn -0.0322 0.0185 0.9993
vn 0.0000 0.0050 1.0000
vn 0.0017 -1.0000 -0.0031
vn -0.0007 -1.0000 -0.0029
vn 0.0043 -1.0000 -0.0007
vn -0.6201 0.0022 -0.7845
vn -0.8589 0.0415 -0.5104
vn -0.5878 -0.0023 -0.8090
vn -0.9728 0.0898 0.2136
vn -0.9529 0.1091 0.2829
vn -0.9776 0.0841 0.1932
vn 0.9432 0.0634 0.3262
vn 0.9479 0.0591 0.3130
vn 0.9495 0.0576 0.3085
vn -0.5011 0.0843 -0.8613
vn -0.5624 0.1091 -0.8196
vn -0.4863 0.0784 -0.8703
vn 0.5886 0.0664 -0.8057
vn 0.5871 0.0658 -0.8069
vn 0.5865 0.0656 -0.8073
vn -0.7216 0.0928 0.6861
vn -0.9527 0.0807 0.2929
vn -0.7162 0.0928 0.6917
vn 0.0406 0.0022 0.9992
vn 0.3949 0.0415 0.9178
vn 0.0000 -0.0023 1.0000
vn 0.5544 0.0022 -0.8322
vn 0.2200 0.0415 -0.9746
vn 0.5878 -0.0023 -0.8090
vn -0.9377 0.0022 0.3474
vn -0.7508 0.0415 0.6592
vn -0.9511 -0.0023 0.3090
vn 0.9628 0.0022 0.2701
vn 0.9949 0.0415 -0.0920
vn 0.9511 -0.0023 0.3090
vn 0.0000 1.0000 0.0000
vn 0.9903 -0.0462 -0.1312
vn 0.9457 -0.0284 0.3239
vn 0.9386 -0.0274 0.3440
vn -0.8755 0.0925 -0.4742
vn -0.5719 0.0844 -0.8160
vn -0.5553 0.0836 -0.8274
vn 0.4314 0.0072 0.9021
vn -0.0165 0.0111 0.9998
vn 0.4384 0.0071 0.8987
vn 0.1811 0.0140 -0.9834
vn 0.6014 -0.0028 -0.7989
vn 0.6175 -0.0035 -0.7866
vn 0.8925 0.2306 0.3875
vn 0.8960 0.2419 0.3722
vn 0.8784 0.1925 0.4374
vn -0.9696 0.1396 0.2011
vn -0.9690 0.1361 0.2062
vn -0.9681 0.1310 0.2137
vn -0.4355 0.1834 -0.8813
vn -0.4341 0.1819 -0.8823
vn -0.4398 0.1878 -0.8782
vn 0.5495 0.3002 -0.7797
vn -0.0605 0.2661 0.9620
vn -0.1182 0.0543 0.9915
vn -0.0072 -0.9999 -0.0070
vn -0.0000 -1.0000 0.0000
vn -0.8820 0.0463 -0.4689
vn -0.9447 0.1157 0.3069
vn 0.9419 0.0645 0.3296
vn -0.5837 0.1178 -0.8034
vn 0.5890 0.0666 -0.8054
vn -0.9588 0.0797 0.2726
vn 0.4380 0.0463 0.8978
vn 0.1734 0.0463 -0.9838
vn -0.7185 0.0463 0.6940
vn 0.9892 0.0463 -0.1391
vn 0.9892 -0.0464 -0.1391
vn -0.8792 0.0925 -0.4674
vn -0.0372 0.0112 0.9992
vn 0.1735 0.0143 -0.9847
vn 0.9074 0.2899 0.3042
vn -0.9707 0.1473 0.1896
vn -0.4300 0.1777 -0.8852
s 1
f 68//1 23//2 69//3
f 69//4 25//5 70//6
f 70//7 27//8 71//7
f 71//9 29//10 72//9
f 21//11 31//11 27//11
f 72//12 31//13 73//12
f 73//14 21//15 68//16
f 50//17 34//18 51//19
f 57//20 75//21 74//22
f 52//23 37//24 53//25
f 54//26 35//27 50//28
f 51//29 33//30 55//31
f 53//32 36//33 54//34
f 55//35 32//36 52//37
f 58//38 74//39 79//40
f 60//41 78//42 77//43
f 56//44 76//45 75//46
f 59//47 79//48 78//49
f 61//50 77//51 76//52
f 41//53 42//53 43//53
f 30//54 44//54 20//55
f 28//56 49//57 30//58
f 26//59 48//60 28//61
f 24//62 47//63 26//64
f 22//65 46//66 24//67
f 20//68 45//69 22//70
f 66//71 55//72 52//73
f 67//74 53//75 54//76
f 64//77 51//78 55//79
f 65//80 54//81 50//82
f 63//83 52//84 53//85
f 62//86 50//87 51//88
f 34//89 60//90 61//91
f 36//92 58//93 59//94
f 33//95 61//96 56//97
f 36//98 60//99 35//100
f 37//101 57//102 58//103
f 33//104 57//105 32//106
f 24//107 65//108 62//109
f 30//110 66//111 63//112
f 26//113 67//114 65//115
f 22//116 62//117 64//118
f 28//119 63//120 67//121
f 20//122 64//123 66//124
f 73//125 44//126 49//127
f 72//128 49//129 48//130
f 71//131 48//132 47//133
f 70//134 47//135 46//136
f 69//137 46//138 45//139
f 44//140 69//141 45//142
f 39//143 74//144 75//145
f 40//146 75//146 76//146
f 40//147 77//148 41//149
f 41//150 78//151 42//152
f 42//153 79//153 43//153
f 38//154 79//155 74//156
f 68//1 21//11 23//2
f 69//4 23//11 25//5
f 70//7 25//11 27//8
f 71//9 27//11 29//10
f 25//11 23//11 21//11
f 31//11 29//11 27//11
f 27//11 25//11 21//11
f 72//12 29//11 31//13
f 73//14 31//11 21//15
f 50//17 35//157 34//18
f 57//20 56//158 75//21
f 52//23 32//159 37//24
f 54//26 36//160 35//27
f 51//29 34//161 33//30
f 53//32 37//162 36//33
f 55//35 33//163 32//36
f 58//38 57//164 74//39
f 60//41 59//165 78//42
f 56//44 61//166 76//45
f 59//47 58//167 79//48
f 61//50 60//168 77//51
f 43//53 38//53 39//53
f 39//53 40//53 43//53
f 40//53 41//53 43//53
f 30//54 49//169 44//54
f 28//56 48//170 49//57
f 26//59 47//171 48//60
f 24//62 46//172 47//63
f 22//65 45//173 46//66
f 20//68 44//174 45//69
f 66//71 64//175 55//72
f 67//74 63//176 53//75
f 64//77 62//177 51//78
f 65//80 67//178 54//81
f 63//83 66//179 52//84
f 62//86 65//180 50//87
f 34//89 35//181 60//90
f 36//92 37//182 58//93
f 33//95 34//183 61//96
f 36//98 59//184 60//99
f 37//101 32//185 57//102
f 33//104 56//186 57//105
f 24//107 26//187 65//108
f 30//110 20//188 66//111
f 26//113 28//189 67//114
f 22//116 24//190 62//117
f 28//119 30//191 63//120
f 20//122 22//192 64//123
f 73//125 68//193 44//126
f 72//128 73//194 49//129
f 71//131 72//195 48//132
f 70//134 71//196 47//135
f 69//137 70//197 46//138
f 44//140 68//198 69//141
f 39//143 38//199 74//144
f 40//146 39//146 75//146
f 40//147 76//200 77//148
f 41//150 77//201 78//151
f 42//153 78//153 79//153
f 38//154 43//202 79//155
f 82//203 2//204 1//205
f 4//206 81//207 3//208
f 80//209 7//210 8//211
f 81//212 82//213 3//214
f 9//215 10//216 5//217
f 80//218 9//219 84//220
f 4//221 6//222 7//223
f 84//224 5//225 83//226
f 2//227 5//228 6//229
f 13//230 19//231 14//232
f 7//233 13//234 8//235
f 5//236 11//237 6//238
f 8//239 14//240 9//241
f 6//242 12//243 7//244
f 16//245 19//245 18//245
f 12//246 15//247 17//248
f 10//249 19//250 16//251
f 12//252 18//253 13//254
f 11//255 16//256 15//257
f 1//258 4//259 3//260
f 80//261 85//262 81//263
f 83//264 85//265 84//266
f 82//203 83//267 2//204
f 4//206 80//268 81//207
f 80//209 4//269 7//210
f 85//270 82//213 81//212
f 82//213 1//271 3//214
f 9//215 14//272 10//216
f 80//218 8//273 9//219
f 4//221 2//274 6//222
f 84//224 9//275 5//225
f 2//227 83//276 5//228
f 13//230 18//277 19//231
f 7//233 12//278 13//234
f 5//236 10//279 11//237
f 8//239 13//280 14//240
f 6//242 11//281 12//243
f 17//245 15//245 18//245
f 15//245 16//245 18//245
f 12//246 11//282 15//247
f 10//249 14//283 19//250
f 12//252 17//284 18//253
f 11//255 10//285 16//256
f 1//258 2//286 4//259
f 80//261 84//287 85//262
f 83//264 82//288 85//265
